<?xml version="1.0" encoding="UTF-8"?>
<svg version="1.1" xmlns="http://www.w3.org/2000/svg" width="1024" height="1024">
<path d="M0 0 C337.92 0 675.84 0 1024 0 C1024 337.92 1024 675.84 1024 1024 C686.08 1024 348.16 1024 0 1024 C0 686.08 0 348.16 0 0 Z " fill="#FEFEFE" transform="translate(0,0)"/>
<path d="M0 0 C95.04 0 190.08 0 288 0 C288 34.84700755 288 34.84700755 275.17468262 47.99682617 C274.24111938 48.79580322 273.30755615 49.59478027 272.34570312 50.41796875 C271.28253049 51.34467602 270.22013505 52.27227557 269.15844727 53.20068359 C268.36114197 53.88901276 268.36114197 53.88901276 267.54772949 54.59124756 C264.84620301 56.95475043 262.2325932 59.41155674 259.61132812 61.86328125 C254.99264138 66.17011556 250.30551384 70.3885617 245.55015564 74.54492188 C243.47675996 76.54101509 241.62485503 78.54260319 239.75123596 80.71801758 C235.72924167 85.37718151 231.41926906 89.70638417 227.0546875 94.04296875 C225.75328827 95.34217758 225.75328827 95.34217758 224.42559814 96.66763306 C222.5535762 98.5358685 220.68068587 100.40317994 218.80621338 102.26895142 C215.83529458 105.22622291 212.86830547 108.18741671 209.90185547 111.14916992 C203.06995194 117.96908721 196.23301981 124.78395597 189.39602661 131.59877014 C183.12423187 137.85032404 176.85353488 144.10296895 170.58689308 150.35968876 C167.64484605 153.29678856 164.70038728 156.23144133 161.75398254 159.16416931 C159.48242009 161.42644662 157.21414543 163.69201702 154.9453125 165.95703125 C153.73720917 167.1573851 153.73720917 167.1573851 152.50469971 168.38198853 C148.36587361 172.52042908 144.41189877 176.74658447 140.59286499 181.18128967 C138.28541579 183.81590197 135.84338765 186.26836752 133.359375 188.73828125 C132.84290405 189.25329193 132.32643311 189.76830261 131.79431152 190.29891968 C130.6884233 191.40104427 129.58138323 192.50201414 128.4732666 193.60189819 C126.712475 195.34974922 124.95498136 197.10085972 123.19824219 198.8527832 C118.8374141 203.2003495 114.47111887 207.54241148 110.10498047 211.88464355 C106.40412928 215.5656568 102.70540744 219.24878557 99.00939941 222.93466187 C97.29055956 224.6470917 95.56870188 226.35644512 93.84667969 228.06567383 C88.92379845 232.96582287 84.0579865 237.86860517 79.58886719 243.19458008 C77.49730747 245.5712064 75.25304147 247.77720549 73 250 C74.668918 250.00213753 74.668918 250.00213753 76.37155151 250.00431824 C86.93233235 250.02109424 97.49273308 250.0641881 108.0533123 250.13209057 C113.48074586 250.16616802 118.90790368 250.19144034 124.33544922 250.19555664 C129.58772597 250.19988122 134.83938273 250.22868364 140.091465 250.27343178 C142.08055108 250.28627523 144.06971187 250.29076202 146.05883408 250.28615379 C157.74951638 250.26540657 168.09875374 251.22320133 179.26686096 254.80751038 C184.14155385 256.36465053 189.03792486 257.32822377 194.0625 258.25 C204.84800608 260.33855554 215.60545892 262.54784963 226.34591675 264.85656738 C228.12890015 265.23785267 229.91283725 265.61471063 231.69778442 265.98669434 C250.22673491 269.85400889 268.2664416 273.92067923 280 290 C281.86155357 293.31382941 283 296.13691962 283 300 C187.96 300 92.92 300 -5 300 C-5 254 -5 254 2.19140625 242.3515625 C5.28982946 239.56816559 8.25918232 237.1057366 11.5625 234.625 C13.15174219 233.27656195 14.73060468 231.91579471 16.29882812 230.54296875 C19.17150348 228.04592699 22.085699 225.6429727 25.08422852 223.29931641 C28.62507822 220.4528693 31.52933736 217.29252839 34.45445251 213.82601929 C36.32049726 211.62134184 38.31551323 209.58647838 40.375 207.5625 C41.13296875 206.81226563 41.8909375 206.06203125 42.671875 205.2890625 C44.22395833 203.76302083 45.77604167 202.23697917 47.328125 200.7109375 C51.48667556 196.59482113 55.44482818 192.40161122 59.2578125 187.96484375 C62.97349533 183.77428666 67.04265713 179.91984588 71.0390625 176 C71.70679688 175.34 72.37453125 174.68 73.0625 174 C73.65160156 173.4225 74.24070312 172.845 74.84765625 172.25 C76.71025246 170.30289398 78.46837844 168.31376216 80.2265625 166.2734375 C84.06651567 161.85899512 88.15325123 157.73692715 92.3125 153.625 C93.4713269 152.47185303 93.4713269 152.47185303 94.65356445 151.29541016 C97.92376036 148.0414017 101.1999349 144.79343734 104.47558594 141.54492188 C106.88165285 139.15704648 109.28463038 136.76609207 111.6875 134.375 C112.41686768 133.65393066 113.14623535 132.93286133 113.89770508 132.18994141 C117.92985683 128.17688172 121.76110657 124.05957805 125.47460938 119.75024414 C127.28636608 117.67142151 129.18865072 115.71267279 131.15625 113.78125 C131.86910156 113.07613281 132.58195313 112.37101562 133.31640625 111.64453125 C134.77213542 110.21484375 136.22786458 108.78515625 137.68359375 107.35546875 C140.96510273 104.10956385 144.16831543 100.86337217 147.15625 97.34375 C153.29694598 90.20650678 160.2045861 83.74347801 166.89355469 77.12695312 C176.02237098 68.1609041 176.02237098 68.1609041 184.5703125 58.6484375 C186.28147246 56.67546071 188.15328591 54.84671409 190 53 C127.3 52.67 64.6 52.34 0 52 C0 34.84 0 17.68 0 0 Z " fill="#202427" transform="translate(338,326)"/>
<path d="M0 0 C0.08636719 0.89460938 0.17273438 1.78921875 0.26171875 2.7109375 C1.52226712 13.55859229 3.76364477 22.39610573 12.59375 29.4140625 C25.48294949 37.90921671 40.96679418 41.37777494 55.82421875 44.71875 C68.65422543 47.64483768 81.41398272 50.80924394 94.15380859 54.10449219 C97.65635006 55.00808778 101.16206903 55.89859803 104.66796875 56.7890625 C132.09780613 63.82668988 160.43415547 72.42499686 176 98 C178.28212053 101.90460716 180.23432468 105.83655849 182 110 C182.41507813 110.97582031 182.83015625 111.95164062 183.2578125 112.95703125 C189.88629893 131.75319383 187.53122674 154.71046059 179.10986328 172.48999023 C167.62850294 195.22288167 145.92702338 209.44280683 122.36328125 217.62109375 C117.48482438 219.21495578 112.54512008 220.52511731 107.5625 221.75 C106.36729736 222.04813599 106.36729736 222.04813599 105.14794922 222.35229492 C89.9910965 225.86659997 74.73856889 226.37445497 59.25 226.3125 C58.32623566 226.31100952 57.40247131 226.30951904 56.45071411 226.3079834 C43.08917509 226.26922621 30.10189463 225.8381938 17 223 C16.25121582 222.85014648 15.50243164 222.70029297 14.73095703 222.54589844 C-11.74777564 217.22643455 -38.91942774 204.83680657 -54.64355469 181.96826172 C-61.70987016 171.20349458 -67 159.02282756 -67 146 C-47.86 146 -28.72 146 -9 146 C-8.01 149.3 -7.02 152.6 -6 156 C0.32428346 167.5917238 12.37706618 173.73858108 24.59814453 177.38183594 C50.13930056 183.95534753 83.53772294 184.72707523 106.9921875 171.28515625 C116.97464023 164.67076684 122.01889427 156.34164843 124.4921875 144.7265625 C124.65976562 143.82679688 124.82734375 142.92703125 125 142 C125.33 140.35 125.66 138.7 126 137 C30.96 137 -64.08 137 -162 137 C-162 136.67 -162 136.34 -162 136 C-66.96 136 28.08 136 126 136 C120.66240405 123.18976973 116.7950562 116.99724086 104.57739258 111.45947266 C100.90481 109.96116524 97.21234691 108.71855426 93.41015625 107.60546875 C92.31473007 107.28473389 92.31473007 107.28473389 91.19717407 106.95751953 C82.77552218 104.56045946 74.22890538 102.79677842 65.65084839 101.06158447 C62.81408143 100.48767551 59.97925076 99.90493987 57.14477539 99.31982422 C53.42759744 98.55280736 49.70991938 97.78831533 45.99169922 97.02636719 C39.80049931 95.75569509 33.61609926 94.45574252 27.4375 93.125 C26.59106934 92.94646484 25.74463867 92.76792969 24.87255859 92.58398438 C20.93533362 91.73295486 17.14704318 90.73087362 13.32351685 89.46012878 C8.23863014 87.92716134 3.61321101 87.55852826 -1.67236328 87.56762695 C-2.58090561 87.5574353 -3.48944794 87.54724365 -4.42552185 87.53674316 C-7.39051677 87.50685609 -10.35518738 87.49738467 -13.3203125 87.48828125 C-15.39111382 87.47141653 -17.46190502 87.4532639 -19.53268433 87.43388367 C-24.95439489 87.38657236 -30.37606439 87.35664119 -35.7979126 87.33044434 C-41.34192003 87.30054325 -46.88578623 87.25404588 -52.4296875 87.20898438 C-63.28638416 87.12316611 -74.14311006 87.05572566 -85 87 C-84.06208435 85.90096964 -83.1234691 84.80253629 -82.18457031 83.7043457 C-81.66195618 83.09258987 -81.13934204 82.48083405 -80.60089111 81.85054016 C-67.27761625 66.44958316 -52.43223425 52.34599291 -38 38 C-33.97786262 34.00168297 -29.95751669 30.00159417 -25.94134521 25.99728394 C-24.35767148 24.41998952 -22.77097604 22.84578195 -21.18408203 21.27172852 C-16.42354836 16.53521833 -11.76538908 11.7623879 -7.41430664 6.64306641 C-1.6961367 0 -1.6961367 0 0 0 Z " fill="#CCB3A2" transform="translate(495,490)"/>
<path d="M0 0 C1.61999274 0.20626788 3.24110513 0.40395687 4.86328125 0.59228516 C31.40711265 3.71609664 57.77842369 14.64066055 74.8125 35.75 C82.27470213 45.43315854 87.47042451 55.97945725 90 68 C90.226875 69.03125 90.45375 70.0625 90.6875 71.125 C91.11538234 75.06151752 91 79.04029629 91 83 C72.52 83 54.04 83 35 83 C34.01 80.03 33.02 77.06 32 74 C26.22918943 60.60347546 16.42001553 53.73109665 3.16796875 48.38671875 C-17.93642822 40.96806661 -46.52104061 43.06365913 -68 48 C-60.6994607 39.36467961 -53.01154182 31.11313861 -45.18383789 22.95483398 C-43.35931831 21.03332243 -41.55493556 19.09247932 -39.77172852 17.13256836 C-27.18591175 3.33150519 -18.91020561 -3.31620573 0 0 Z " fill="#CCB3A2" transform="translate(585,420)"/>
<path d="M0 0 C0.57234375 0.72445312 1.1446875 1.44890625 1.734375 2.1953125 C5.31590042 6.62899396 9.10002155 10.84482162 13 15 C13.87398438 15.93392578 13.87398438 15.93392578 14.765625 16.88671875 C25.01827468 26.79299513 39.55624885 32.10581299 53 36 C53 36.33 53 36.66 53 37 C8.945 37.495 8.945 37.495 -36 38 C-31.7615926 33.05519137 -27.51327616 28.23897294 -23.0625 23.5 C-22.42368896 22.81873047 -21.78487793 22.13746094 -21.12670898 21.43554688 C-14.24158629 14.13306767 -7.14166404 7.05049386 0 0 Z " fill="#FDFDFD" transform="translate(446,539)"/>
<path d="M0 0 C0.66 0 1.32 0 2 0 C1.44449305 3.59905908 0.25112752 4.99909799 -2.5625 7.25 C-3.20316406 7.77078125 -3.84382813 8.2915625 -4.50390625 8.828125 C-4.99761719 9.21484375 -5.49132812 9.6015625 -6 10 C-6.66 9.67 -7.32 9.34 -8 9 C-6.71520959 7.49410612 -5.42195918 5.99542625 -4.125 4.5 C-3.04605469 3.24703125 -3.04605469 3.24703125 -1.9453125 1.96875 C-1.30335938 1.3190625 -0.66140625 0.669375 0 0 Z " fill="#D5BFAD" transform="translate(488,496)"/>
<path d="M0 0 C0.33 0.66 0.66 1.32 1 2 C-0.65 3.32 -2.3 4.64 -4 6 C-4.66 5.34 -5.32 4.68 -6 4 C-3.94766315 1.7522025 -2.99332739 0.9977758 0 0 Z " fill="#2A2C2E" transform="translate(422,490)"/>
</svg>
